<svg width="14" height="13" viewBox="0 0 14 13" fill="none" xmlns="http://www.w3.org/2000/svg">
<g id="archive">
<path id="Icon" d="M2.66668 4.33149C2.57784 4.3292 2.51333 4.32405 2.45533 4.31252C2.02558 4.22704 1.68964 3.8911 1.60416 3.46135C1.58334 3.3567 1.58334 3.23085 1.58334 2.97917C1.58334 2.72748 1.58334 2.60163 1.60416 2.49699C1.68964 2.06724 2.02558 1.7313 2.45533 1.64582C2.55998 1.625 2.68582 1.625 2.93751 1.625H11.0625C11.3142 1.625 11.44 1.625 11.5447 1.64582C11.9744 1.7313 12.3104 2.06724 12.3959 2.49699C12.4167 2.60163 12.4167 2.72748 12.4167 2.97917C12.4167 3.23085 12.4167 3.3567 12.3959 3.46135C12.3104 3.8911 11.9744 4.22704 11.5447 4.31252C11.4867 4.32405 11.4222 4.3292 11.3333 4.33149M5.91668 7.04167H8.08334M2.66668 4.33333H11.3333V8.775C11.3333 9.68509 11.3333 10.1401 11.1562 10.4877C11.0004 10.7935 10.7518 11.0421 10.4461 11.1979C10.0985 11.375 9.64343 11.375 8.73334 11.375H5.26668C4.35659 11.375 3.90155 11.375 3.55394 11.1979C3.24818 11.0421 2.99959 10.7935 2.84379 10.4877C2.66668 10.1401 2.66668 9.68509 2.66668 8.775V4.33333Z" stroke="#828282" stroke-linecap="round" stroke-linejoin="round"/>
</g>
</svg>
