<svg width="33" height="32" viewBox="0 0 33 32" fill="none" xmlns="http://www.w3.org/2000/svg">
<g id="key-01">
<path id="Icon" d="M23.1667 11.9999C23.1666 11.3175 22.9063 10.6351 22.3856 10.1144C21.8649 9.59368 21.1825 9.33333 20.5 9.33333M20.5 20C24.9183 20 28.5 16.4183 28.5 12C28.5 7.58172 24.9183 4 20.5 4C16.0817 4 12.5 7.58172 12.5 12C12.5 12.3649 12.5244 12.7241 12.5717 13.076C12.6496 13.6549 12.6885 13.9443 12.6623 14.1275C12.635 14.3182 12.6003 14.421 12.5063 14.5892C12.416 14.7507 12.2569 14.9097 11.9388 15.2278L5.12484 22.0418C4.89424 22.2724 4.77894 22.3877 4.69648 22.5223C4.62337 22.6416 4.5695 22.7716 4.53684 22.9077C4.5 23.0611 4.5 23.2242 4.5 23.5503V25.8667C4.5 26.6134 4.5 26.9868 4.64532 27.272C4.77316 27.5229 4.97713 27.7268 5.22801 27.8547C5.51323 28 5.8866 28 6.63333 28H9.83333V25.3333H12.5V22.6667H15.1667L17.2722 20.5612C17.5903 20.2431 17.7493 20.084 17.9108 19.9937C18.079 19.8997 18.1818 19.865 18.3725 19.8377C18.5557 19.8115 18.8451 19.8504 19.424 19.9283C19.7759 19.9756 20.1351 20 20.5 20Z" stroke="#32D583" stroke-width="2" stroke-linecap="round" stroke-linejoin="round"/>
</g>
</svg>
