<svg width="14" height="13" viewBox="0 0 14 13" fill="none" xmlns="http://www.w3.org/2000/svg">
<g id="trash-01">
<path id="Icon" d="M9.16667 3.25V2.81667C9.16667 2.20995 9.16667 1.90658 9.04859 1.67485C8.94473 1.471 8.779 1.30527 8.57516 1.20141C8.34342 1.08334 8.04006 1.08334 7.43333 1.08334H6.56667C5.95994 1.08334 5.65658 1.08334 5.42484 1.20141C5.221 1.30527 5.05527 1.471 4.95141 1.67485C4.83333 1.90658 4.83333 2.20995 4.83333 2.81667V3.25M5.91667 6.22917V8.9375M8.08333 6.22917V8.9375M2.125 3.25H11.875M10.7917 3.25V9.31667C10.7917 10.2268 10.7917 10.6818 10.6146 11.0294C10.4588 11.3352 10.2102 11.5838 9.9044 11.7396C9.5568 11.9167 9.10175 11.9167 8.19167 11.9167H5.80833C4.89825 11.9167 4.44321 11.9167 4.0956 11.7396C3.78984 11.5838 3.54124 11.3352 3.38545 11.0294C3.20833 10.6818 3.20833 10.2268 3.20833 9.31667V3.25" stroke="#AF202D" stroke-linecap="round" stroke-linejoin="round"/>
</g>
</svg>
